<svg width="27" height="28" viewBox="0 0 27 28" fill="none" xmlns="http://www.w3.org/2000/svg">
<path d="M6.6112 18.2046L4.5553 4.5127H3.3002C3.00846 4.5127 2.72867 4.39384 2.52238 4.18226C2.31609 3.97068 2.2002 3.68372 2.2002 3.3845C2.2002 3.08528 2.31609 2.79832 2.52238 2.58674C2.72867 2.37516 3.00846 2.25629 3.3002 2.25629H5.4837C5.74906 2.25127 6.00714 2.34552 6.2097 2.52142C6.4176 2.70074 6.55322 2.95281 6.5903 3.22881L6.9511 5.64091H15.4002V7.89732H7.2899L8.6429 16.923H18.9818L20.6318 11.2819H22.9286L20.854 18.375C20.7861 18.6075 20.6469 18.8113 20.457 18.9562C20.2672 19.1011 20.0368 19.1794 19.8002 19.1794H7.7178C7.4449 19.1845 7.18002 19.0847 6.9753 18.8996C6.77585 18.7207 6.64615 18.4738 6.6101 18.2046H6.6112ZM11.0002 22.564C11.0002 23.1624 10.7684 23.7364 10.3558 24.1595C9.94325 24.5827 9.38367 24.8204 8.8002 24.8204C8.21672 24.8204 7.65714 24.5827 7.24456 24.1595C6.83198 23.7364 6.6002 23.1624 6.6002 22.564C6.6002 21.9656 6.83198 21.3916 7.24456 20.9685C7.65714 20.5453 8.21672 20.3076 8.8002 20.3076C9.38367 20.3076 9.94325 20.5453 10.3558 20.9685C10.7684 21.3916 11.0002 21.9656 11.0002 22.564ZM20.9002 22.564C20.9002 23.1624 20.6684 23.7364 20.2558 24.1595C19.8433 24.5827 19.2837 24.8204 18.7002 24.8204C18.1167 24.8204 17.5571 24.5827 17.1446 24.1595C16.732 23.7364 16.5002 23.1624 16.5002 22.564C16.5002 21.9656 16.732 21.3916 17.1446 20.9685C17.5571 20.5453 18.1167 20.3076 18.7002 20.3076C19.2837 20.3076 19.8433 20.5453 20.2558 20.9685C20.6684 21.3916 20.9002 21.9656 20.9002 22.564ZM20.9002 2.25629C21.1919 2.25629 21.4717 2.37516 21.678 2.58674C21.8843 2.79832 22.0002 3.08528 22.0002 3.3845V4.5127H23.1002C23.3919 4.5127 23.6717 4.63157 23.878 4.84315C24.0843 5.05473 24.2002 5.34169 24.2002 5.64091C24.2002 5.94013 24.0843 6.22709 23.878 6.43867C23.6717 6.65025 23.3919 6.76912 23.1002 6.76912H22.0002V7.89732C22.0002 8.19654 21.8843 8.4835 21.678 8.69508C21.4717 8.90666 21.1919 9.02553 20.9002 9.02553C20.6085 9.02553 20.3287 8.90666 20.1224 8.69508C19.9161 8.4835 19.8002 8.19654 19.8002 7.89732V6.76912H18.7002C18.4085 6.76912 18.1287 6.65025 17.9224 6.43867C17.7161 6.22709 17.6002 5.94013 17.6002 5.64091C17.6002 5.34169 17.7161 5.05473 17.9224 4.84315C18.1287 4.63157 18.4085 4.5127 18.7002 4.5127H19.8002V3.3845C19.8002 3.08528 19.9161 2.79832 20.1224 2.58674C20.3287 2.37516 20.6085 2.25629 20.9002 2.25629Z" fill="white"/>
</svg>
