<svg width="50" height="50" viewBox="0 0 50 50" fill="none" xmlns="http://www.w3.org/2000/svg">
<g clip-path="url(#clip0_189_38)">
<path d="M26.4629 4.57389L41.0462 10.0426C42.6727 10.6525 43.75 12.2072 43.75 13.944V25.1163C43.75 32.2183 39.7375 38.7108 33.3852 41.8869L26.3975 45.3806C25.5177 45.8206 24.4823 45.8206 23.6025 45.3806L16.6147 41.8869C10.2625 38.7108 6.25 32.2183 6.25 25.1163V13.944C6.25 12.2072 7.3274 10.6525 8.95365 10.0426L23.5371 4.57389C24.4802 4.22016 25.5198 4.22016 26.4629 4.57389ZM25 8.47527L10.4167 13.944V25.1163C10.4167 30.64 13.5375 35.6898 18.4781 38.16L25 41.4211L31.5219 38.16C36.4625 35.6898 39.5833 30.64 39.5833 25.1163V13.944L25 8.47527ZM25 16.6669C27.3012 16.6669 29.1667 18.5324 29.1667 20.8336C29.1667 22.2572 28.4527 23.514 27.3633 24.2657L27.0833 24.4429V31.2502C27.0833 32.4008 26.1506 33.3336 25 33.3336C23.9316 33.3336 23.051 32.5293 22.9307 31.4932L22.9167 31.2502V24.4429C21.6712 23.7223 20.8333 22.3758 20.8333 20.8336C20.8333 18.5324 22.6987 16.6669 25 16.6669Z" fill="black"/>
</g>
<defs>
<clipPath id="clip0_189_38">
<rect width="50" height="50" fill="white"/>
</clipPath>
</defs>
</svg>
