<svg width="50" height="50" viewBox="0 0 50 50" fill="none" xmlns="http://www.w3.org/2000/svg">
<path d="M25 2.38086C27.5298 2.38086 29.5789 5.15516 31.8219 6.10804C34.065 7.06092 37.5729 6.5381 39.2763 8.34266C40.9797 10.1472 40.5496 13.4612 41.5109 15.797C42.4722 18.1328 45.2381 20.0892 45.2381 22.619C45.2381 25.1487 42.4638 27.1978 41.5109 29.4409C40.558 31.6839 41.0808 35.1919 39.2763 36.8952C37.4717 38.5986 34.1577 38.1854 31.8219 39.1299C29.4861 40.0743 27.5298 42.857 25 42.857C22.4702 42.857 20.4211 40.0827 18.1781 39.1299C15.935 38.177 12.4271 38.6998 10.7237 36.8952C9.02033 35.0907 9.43353 31.7767 8.48908 29.4409C7.54464 27.1051 4.7619 25.1487 4.7619 22.619C4.7619 20.0892 7.53621 18.0401 8.48908 15.797C9.44196 13.554 8.91914 10.046 10.7237 8.34266C12.5283 6.63929 15.8423 7.05249 18.1781 6.10804C20.5139 5.1636 22.4702 2.38086 25 2.38086ZM25 8.77272C22.2615 8.77272 19.5844 9.58479 17.3074 11.1062C15.0304 12.6277 13.2557 14.7902 12.2077 17.3202C11.1598 19.8503 10.8856 22.6343 11.4198 25.3202C11.9541 28.0061 13.2728 30.4733 15.2092 32.4097C17.1457 34.3461 19.6128 35.6649 22.2987 36.1991C24.9846 36.7334 27.7686 36.4592 30.2987 35.4112C32.8288 34.3632 34.9913 32.5885 36.5127 30.3115C38.0342 28.0345 38.8462 25.3575 38.8462 22.619C38.8351 18.9501 37.3727 15.4347 34.7785 12.8405C32.1842 10.2462 28.6688 8.78385 25 8.77272ZM31.4256 16.4885L32.7832 17.7702C32.9221 17.9535 32.9972 18.177 32.9972 18.4069C32.9972 18.6368 32.9221 18.8603 32.7832 19.0436L24.2242 28.5808C24.055 28.7726 23.8457 28.9249 23.6111 29.027C23.3765 29.129 23.1223 29.1781 22.8666 29.171C22.6121 29.1696 22.3606 29.1166 22.1272 29.0151C21.8939 28.9137 21.6835 28.7659 21.5089 28.5808L16.8795 23.9682C16.7947 23.8955 16.7251 23.8067 16.6749 23.707C16.6247 23.6072 16.5948 23.4985 16.587 23.3871C16.5791 23.2757 16.5935 23.1638 16.6292 23.058C16.665 22.9522 16.7214 22.8546 16.7951 22.7707L16.8795 22.678L18.254 21.4047C18.4195 21.2266 18.6483 21.1207 18.8912 21.1096C19.1341 21.0986 19.3716 21.1833 19.5526 21.3456L19.6116 21.4047L22.8919 24.7777L30.1354 16.5138C30.3051 16.3429 30.5346 16.2447 30.7754 16.24C31.0162 16.2353 31.2493 16.3244 31.4256 16.4885Z" fill="black"/>
</svg>
