<svg width="50" height="50" viewBox="0 0 50 50" fill="none" xmlns="http://www.w3.org/2000/svg">
<path d="M35.4167 41.6666C37.7179 41.6666 39.5833 39.8011 39.5833 37.4999C39.5833 35.1987 37.7179 33.3333 35.4167 33.3333C33.1155 33.3333 31.25 35.1987 31.25 37.4999C31.25 39.8011 33.1155 41.6666 35.4167 41.6666Z" stroke="black" stroke-width="1.5"/>
<path d="M14.5834 41.6666C16.8845 41.6666 18.75 39.8011 18.75 37.4999C18.75 35.1987 16.8845 33.3333 14.5834 33.3333C12.2822 33.3333 10.4167 35.1987 10.4167 37.4999C10.4167 39.8011 12.2822 41.6666 14.5834 41.6666Z" stroke="black" stroke-width="1.5"/>
<path d="M10.4167 37.4424C8.13185 37.3287 6.70648 36.9887 5.69217 35.9745C4.67785 34.9601 4.33798 33.5347 4.22408 31.2499M18.75 37.4999H31.25M39.5834 37.4424C41.8681 37.3287 43.2936 36.9887 44.3079 35.9745C45.8334 34.4489 45.8334 31.9937 45.8334 27.0833V22.9166H36.0417C34.4906 22.9166 33.715 22.9166 33.0875 22.7126C31.819 22.3005 30.8244 21.306 30.4123 20.0375C30.2084 19.4099 30.2084 18.6343 30.2084 17.0833C30.2084 14.7566 30.2084 13.5934 29.9025 12.6519C29.2842 10.7492 27.7925 9.25738 25.8898 8.63915C24.9484 8.33325 23.785 8.33325 21.4584 8.33325H4.16669" stroke="black" stroke-width="1.5" stroke-linecap="round" stroke-linejoin="round"/>
<path d="M4.16669 16.6665H16.6667" stroke="black" stroke-width="1.5" stroke-linecap="round" stroke-linejoin="round"/>
<path d="M4.16669 22.9165H12.5" stroke="black" stroke-width="1.5" stroke-linecap="round" stroke-linejoin="round"/>
<path d="M30.2084 12.5H34.0025C37.0346 12.5 38.5505 12.5 39.7842 13.2369C41.018 13.9738 41.7367 15.3086 43.1742 17.9781L45.8334 22.9167" stroke="black" stroke-width="1.5" stroke-linecap="round" stroke-linejoin="round"/>
</svg>
