<svg height="48" viewBox="0 0 48 48" width="48" xmlns="http://www.w3.org/2000/svg"><path d="m0 0h48v48h-48z" fill="none"/><path d="m37.7 11.1a3 3 0 0 0 -2.3-1.1h-1.2l.3-1.7a3.1 3.1 0 0 0 -.6-2.3 3.2 3.2 0 0 0 -2.2-1h-23.8a2.1 2.1 0 0 0 -2.1 1.7 2 2 0 0 0 2 2.3h7.3a3 3 0 0 1 2.9 3.5l-2.4 13.8a3 3 0 0 1 -2.9 2.5h-7.9a2 2 0 0 0 -2 1.6l-.8 4.3a2.8 2.8 0 0 0 .7 2.3 2.8 2.8 0 0 0 2.1 1h2.5a7 7 0 0 0 13.4 0h4.6a7 7 0 0 0 13.4 0h2a3.2 3.2 0 0 0 3.1-2.7l2.2-12.8zm-23.7 27.9a3 3 0 0 1 -3-3 3 3 0 0 1 6 0 3 3 0 0 1 -3 3zm18 0a3 3 0 0 1 -3-3 3 3 0 0 1 6 0 3 3 0 0 1 -3 3zm.1-17 1.4-8h1.3l5.9 8z"/><path d="m4 15h10a2 2 0 0 0 0-4h-10a2 2 0 0 0 0 4z"/><path d="m15 19a2 2 0 0 0 -2-2h-8a2 2 0 0 0 0 4h8a2 2 0 0 0 2-2z"/><path d="m6 23a2 2 0 0 0 0 4h6a2 2 0 0 0 0-4z"/></svg>